/* XPM */
static char *_d4b4f2d456d40b8d03f9253e23ac764EjA4jiuKsfZdrwuX[] = {
/* columns rows colors chars-per-pixel */
"64 64 253 2 ",
"   c #1D1716",
".  c #1B0F13",
"X  c #231C1C",
"o  c #291918",
"O  c #31190D",
"+  c #24221D",
"@  c #2D221C",
"#  c #38271B",
"$  c #3C2B0A",
"%  c #271D23",
"&  c #321F23",
"*  c #252323",
"=  c #2A2524",
"-  c #2D2C2B",
";  c #2C2926",
":  c #332423",
">  c #342A24",
",  c #3B2B25",
"<  c #332C2B",
"1  c #3C2C2B",
"2  c #362526",
"3  c #35322C",
"4  c #3B322C",
"5  c #393528",
"6  c #372E31",
"7  c #343333",
"8  c #3C3432",
"9  c #3C3A37",
"0  c #2E302D",
"q  c #472803",
"w  c #563608",
"e  c #432B19",
"r  c #4A3518",
"t  c #573A18",
"y  c #51310D",
"u  c #633E18",
"i  c #412C27",
"p  c #44332D",
"a  c #4A3728",
"s  c #563C2B",
"d  c #433534",
"f  c #443B35",
"g  c #4B3B34",
"h  c #443C3A",
"j  c #4D3C3B",
"k  c #493537",
"l  c #533C39",
"z  c #4C2F33",
"x  c #66392E",
"c  c #441F02",
"v  c #5A431A",
"b  c #684819",
"n  c #724A1A",
"m  c #78551B",
"M  c #684C11",
"N  c #7D621D",
"B  c #594529",
"V  c #4C433C",
"C  c #494339",
"Z  c #53433B",
"A  c #594637",
"S  c #594F32",
"D  c #674927",
"F  c #764B2A",
"G  c #785928",
"H  c #674A37",
"J  c #754A38",
"K  c #695439",
"L  c #7D5C34",
"P  c #765839",
"I  c #68522B",
"U  c #7B633A",
"Y  c #78622E",
"T  c #553F43",
"R  c #6D3D45",
"E  c #4C4641",
"W  c #534443",
"Q  c #5A4A46",
"!  c #5A5449",
"~  c #5E5256",
"^  c #654B46",
"/  c #794B49",
"(  c #64534B",
")  c #685646",
"_  c #765947",
"`  c #664D52",
"'  c #695655",
"]  c #775854",
"[  c #794A56",
"{  c #6B634B",
"}  c #7A6448",
"|  c #696355",
" . c #786756",
".. c #7A725B",
"X. c #7C5565",
"o. c #7A6865",
"O. c #7B7264",
"+. c #835E18",
"@. c #86651B",
"#. c #845E29",
"$. c #845C37",
"%. c #88682A",
"&. c #936B2B",
"*. c #957629",
"=. c #846433",
"-. c #8C6B3B",
";. c #886739",
":. c #926C32",
">. c #946A38",
",. c #8C7439",
"<. c #9B7B3B",
"1. c #987637",
"2. c #8D7426",
"3. c #A37C3B",
"4. c #835B44",
"5. c #865A5A",
"6. c #846543",
"7. c #846B44",
"8. c #876A49",
"9. c #946C46",
"0. c #8A7448",
"q. c #957A43",
"w. c #987747",
"e. c #8B6D53",
"r. c #866957",
"t. c #956A58",
"y. c #897558",
"u. c #977958",
"i. c #A47C48",
"p. c #A37B59",
"a. c #885B64",
"s. c #8D6567",
"d. c #946868",
"f. c #877867",
"g. c #987766",
"h. c #976B74",
"j. c #897776",
"k. c #9B7674",
"l. c #8E6675",
"z. c #A37A67",
"x. c #A57A79",
"c. c #A06E7A",
"v. c #9B8131",
"b. c #A6873B",
"n. c #B08F3B",
"m. c #9B8548",
"M. c #998558",
"N. c #A48443",
"B. c #A88849",
"V. c #B28C48",
"C. c #AC9149",
"Z. c #B59649",
"A. c #A88958",
"S. c #AB9459",
"D. c #B79958",
"F. c #B58558",
"G. c #BDA354",
"H. c #8D856D",
"J. c #978668",
"K. c #9D916B",
"L. c #988977",
"P. c #9D9374",
"I. c #8F8674",
"U. c #A58C6B",
"Y. c #A88767",
"T. c #B58B68",
"R. c #A99768",
"E. c #B59A67",
"W. c #A88777",
"Q. c #B38E74",
"!. c #A89877",
"~. c #B69A78",
"^. c #B9A56A",
"/. c #ADA278",
"(. c #BCA472",
"). c #B8A57A",
"_. c #ACA16C",
"`. c #C5A75A",
"'. c #D1A75D",
"]. c #C5976E",
"[. c #C5A965",
"{. c #CCB36B",
"}. c #D4B66C",
"|. c #C5A979",
" X c #CBB57A",
".X c #D5B97A",
"XX c #D3A77C",
"oX c #C59C58",
"OX c #DEC47A",
"+X c #A87B82",
"@X c #8F7F82",
"#X c #998786",
"$X c #989485",
"%X c #AA8786",
"&X c #B38889",
"*X c #A89985",
"=X c #B6978A",
"-X c #BB9696",
";X c #B19296",
":X c #ACA484",
">X c #B8A986",
",X c #B7AA96",
"<X c #BDB498",
"1X c #B1AC8E",
"2X c #B69BA3",
"3X c #B8A6A6",
"4X c #BAB9A5",
"5X c #C4979A",
"6X c #C09D81",
"7X c #C6AA87",
"8X c #C8B788",
"9X c #D6B889",
"0X c #C7A896",
"qX c #C8B897",
"wX c #D5BA96",
"eX c #D2AD8F",
"rX c #E4BD95",
"tX c #E0BC8A",
"yX c #D4AAAA",
"uX c #C7BAA2",
"iX c #D3B8A4",
"pX c #CEAEB0",
"aX c #C498A6",
"sX c #D8C38A",
"dX c #CDC399",
"fX c #D6C79A",
"gX c #D3CA94",
"hX c #E7C699",
"jX c #E7CB8B",
"kX c #CAC2A5",
"lX c #DBCCA3",
"zX c #DCCCAB",
"xX c #D5C6A7",
"cX c #D9D2A8",
"vX c #D5CBB3",
"bX c #DCD4B6",
"nX c #E7CAA8",
"mX c #E5D5AA",
"MX c #E5CBB4",
"NX c #E7D9B6",
"BX c #F6DAB9",
"VX c #F2D2AC",
"CX c #F9E4BC",
"ZX c #E8E1BA",
"AX c #E6BBC3",
"SX c #D3BCC2",
"DX c #DAD4C4",
"FX c #EDD0C7",
"GX c #EAE4C6",
"HX c #F8E9C7",
"JX c #FEF7D7",
"KX c #F5EBD0",
"LX c #FFF0EC",
/* pixels */
"$.$.m :.3.3.+.M F n 2.2.:.jXb.2.Z.G.`.Z.%.|.wXlXR.S P.:XkX<X1XU M.fXR.!.fX!./.fXcXM._.R.^.w.F.i.=.n n %.N.b.1.%.*.@.<.}.Z.:.1.>.",
"$.F.:.1.D..XN.1.F n b.n.<.D.Z.Z.C.Z.`.`.E.wXlXNXcX/.<XvXJXvXxXK.>XVX).lXlXlXdXcXNX8X). XE.q.|.i.;.-.-.A.jX[.b.1.b.1.B.V.1.1.i.i.",
"n 9.i.>.G w.B.:.-.-.Z.n.<.<.b.`.`.`.}.[.9XnXzXxXNXJXKXGXKXbXxXJXNXfX7XmXHXdX8XcXdXfX8X(.|.-.|.Y.8.;.q.D.<.@.1.C.m w #.$.G ;.9.$.",
"n G <.:.n #.B.1.G >.b.Z.*.1.2.B.OXjXjX XfXNXNXbXdXZXHXGXGXbXxXNX).>X8XfXJX!.} fXfXNX8XmXmXA.).0.y I N.D.%.m b.<.%.b =.G n w.w.n ",
"%.G &.B.m #.:.&.G m n.`.2.*.*.b..X{.D.^.dXNXvXxX/.qXNXHXZXNXNXy.I !.mXlXHXR.I qXfXcXGXNX>X>XfXA.G -.A.B.%.N Z.*.1.1.b.B.i.i.:.#.",
"<.%.<.`.3.1.i.i.w.m b.Z.C.C.Z.`.}.OX X8XdXGXGXGXCXlXHXNXCXHX!.J.J.<XHXmXlXmXqX8X!.qXbXNXGXqXqX/.S.E.A.E.m.C.{.b.2.2.n.}.[.3.:.V.",
"q.%.G N.D.1.G G >.=.:.B.D..X[.{. X.X.XsXcXKXGXZXHXmXnXwXCX).>XJXKXqX>XfX7XgXfXdX8X/.vXxXP.!.qX/.^. X6.e.S. XD.N *.*.n.n.%.:.V.N.",
"3.m M Z.B.1.b w m w.%.m.%..X^.^.|.S.^.8XbXGXKXGXcX8X>X7X7X).HXJXJXJX8XK.8X).gXlXlXP.kXkXP.P.GXR.(.-.y P E.^.^.N 2.b.Z.+.M :.N.@.",
"b.@.2.D.1.i.;.%.:.3.*.b.<..X(.).(.(.lXgXkXDXGXGXNX).8Xu.0.~.lXJXJXKXmX).R.(.fXmXHX!.uXxXvXqXJX).A.q.0.A.E.B..Xm.2.*.v.%.m N.:.M ",
"n.n.*.Z.1.>.A.%.:.1.Z.G.D.^.gXmX8X|.gXlXvXDXGXGXJXdX).8.L u.U !.BXu.7.Y.A.R.9XCXwXkXxXuXuXqXHX>XM.q.m.E.,.m. XS.m.N.C.1.1.D.i.G ",
"&.V.n.V.q O A.:.G G D.{.m.M.qXJX8X(.).8XbXbXGXbXdXzX7XK e.u.u.qXBX7X0.u.E.w.wXlXxXzXuXxXGXuXNX!.P 9.m.^.$ t 8XR.S.,.%.N.Z.C.$.D ",
"+.3.b.1.w t <.<.b =.N.}.q.0.qXHXwX(.M.R.dXvXGXbX:X>X>XH y.BXHXBXBXHXHXwX).7X).fXdXxXqXL.qXqXHXM.t I S.S.B v 8X8XY w M v.b.Z.b D ",
"1.:.*.V.A.E.1.%.;.G B.}.A.M.cXxXqXE.R._.fXNXHXNX:XK. .e H 7XVX7XM.fXVXJ.P U.).xXdXbXkX!.I.,XkXJ.;.,.A.m.mXqXmXgX,.%.v.n.v.Z.1.I ",
"i.&.1.D.q.;.%.<.N.m.D.D. XsXqXGXfX).8X8XmXNXGXZX!.y.f.s s J.wXeXu.eXwXu.K H 8.>X1X<XkX<XuX<X<XwXR.E.A.M.M.K.fXS.m.b.G.v.*.{. X,.",
"1.m w q.w.D D b 1.D.N.D.^.9XxXNXmX(. X8X9XwXNXNXJ.f.j. .e 8.7X9.u.u.7X} r g.r.uXbX1XxX{ <XH.qXzXA.A.I } K ).R.b m.b.G.q q (.(.q.",
"3.n M w.D O b w b.Z.1.D.C.sXzX<X>X0.S. X9X8XNXGXP.!.*X{ ) r e.~.=X0Xf.e s } g.uXNX!.qX!.kX..y.>XD.D.v B $ U _.b ,.C.S.M q 7.m.Y ",
"1.:.%.A.G u :.1.3.N.V.D.[.sXlXqX>XM.,.sXmXfXGXHX>XiXe.r. .# A r.%Xo.5 5 Q L.H g.MX>XxXxXzX/.!.fXS.C.B.C.m q.|.,.v.m.-.E.D.B.9.F ",
"B.V.1.>.9.i.V.b.i.:.Z.`.C.E.gXdXfX>X^. XlXCXGXiXiXxX8.} f.A g a i , 5 V  .f.r.0XMXnXwX).fX).).fX|.D.G.{.(.E.S.B.m.,.9.=.=.E.9.G ",
"-.E.B.-.D D V.Z.i.#.i.D.C.m.8X>XqX8X~.R.mXmXKXxXMXHXeXr y.{ ^ A a A S ..{ *XiXnXBXnXnXu.).!.>X~.L w..X9X7.U M.R.m.D D D w.q.t B ",
"4.Y.9.9.H P <.oX4.t.6.T. XR.7X>XMXwXU.Q.qXMXKX0X7XwXBXQ.K _ H _ _ } K r # y.NXwXnXhX9X~.9X).qXU.K u.7X|.y._ U.U.u.t s O D u.D s ",
"/ yX/ t.[ 5.9.]./ 5Xz.t.Y.Q.0X0X0XW.0XeXiXzXHX~.7XeXwXnXH _ J e.u.J.} r $ S >XlXnXrX|.E.hX~.J.W.W.g.u.g.d.r.g.d.r.4./ x J g.H / ",
"l.FXk.5.d.d._ g./ yX&Xd.e.z.d.s.k.r.x.r.-XW.iXu.|.9XrXQ.e.r.u.~.7X7XeXe._ K !.nXnXhXA.9.eXg.r.s.d.d.d./ s.s./ 5.5.5.d.[ [ 5.+Xk.",
"2XLX-X%XaX&Xk.5Xk.-Xk.%X%X=XW.0X%X5X5Xx.yXW.0XY.|.9XwX8.J _ T.nXnXVXVX0X_ y.e.eXhXrXp.6.~.-Xx.h.5Xx.&Xx.k.&X+Xd.&Xd.yXd.&X-XFXFX",
"l.FXk.pXFXpXz %XW.5Xs.k.%X%X=XyXk.a.-X5XFX;XiX).|.rXQ.t J P p.|.BXVXHX0XK s O U.nXrXF.6.0X0X;Xs.0XW.-XyX-Xx.h.a.5Xc.5X[ 5.&XpXh.",
"/ yXk.yXFXyX^ &X&X&Xz.&X&X%X-X5Xs.] &XAXLX-XMX|.9X9Xp.t _ U.].hXVXVXHXeX_ _ r e.eXeXT.w.~.yX+XyXFXpX5X-X;X[ aX+X5Xx.yXR h.h.aXa.",
"] d.e.r.g.g.=Xt.t.4.z.t.d.5.s.h.&X5.5.+XAX;XnX|.|.hXQ.x ~.~.eXCXCXCXVXnXg.W.B y.9XXXT.p.z.Q.5.d.AXpX5.[ a.l.l.a.d.5.d./ z.d.a.R ",
"D 7.Y -.H P (.q.9.L Y.u.Y._ W.W.0Xk.W.k.%X;XnXR. XhXQ.J Q.eXnXCXHXVXBXnXiXr.K u.9X9X].i.Y.Q.8./ +Xc./ h.X.[ d./ J J x J t.9.x x ",
"U M.,.q.v q 1.C.A.9.A.(.9XR.qXxXiX=Xt.W.s.%XzXE..XhXY._ 8.eXCXBXCXBXVXnXQ.8.8.M.|.9XXXi.F.|.~.z.5./ 5.W.l [ x.z.p.9.$.$.p.F.F x ",
"8.-.%.1.b w 3.Z..XA.b A.sX8XfXxXqX7XnX~.0XiXqXE.9XrXY.r.u.7.U.wXqX>XU.e.P 6.e.e.7XXXXXT.].XX9X~.Q.P u.Q.H e.~.A.D.B.A.&.&.3.>.>.",
"6.L M N.B.i.<.1.V.D.T.U.fX7XqXlX~.U.9X8XMXMX>X|.tXrXu._ g.e.} P S A H S _ t.r.e.T.7XXX].F.i.|.sX|.w.0.~.~.).(.G D.B.D.b.1.N.1.:.",
"8.P q %.D.&.M M @.D.~.U.xXK.dXdX_.0.sX(.qX0XY.].XXrXz.r.e.y.e.} A ^  .) r.r._ J Y.7X].].].>.,.m.|.A.D L M.hXw.v E.C.Z.@.m >.>.w.",
"e.P w 1.B.@.#.m 2.Z.u.7XBX/.cXcXdXR.8X_.nX~.A.~.XXeXt._ }  .r.f.] g Z Z ^ ^ ) _ u.6XT.T.T.A.(.sXjXE.;.q.q.(.R.G A.B.<.w w ;.9.9.",
"=.q.:.3.:.1.Z.V.n.3.p.eXJXdX<X<XdX_.R._.NXu.u.T.|.7X8.B K ) Q ( Q ( ( C f V g A r.~.T.T.u.w.wX9XsX{.}.{.C.m.E.A.A.A.w.w u ;.$.L ",
"N <.%.1.1.&.3.oX'.&.;.~.BX!.:XP.8XfX8XK.wX6.u.Q.Q.Q.P e C C Q Q Z p f 9 3 ; 4  .) Y.Y.p.u.I ~.0.M }.OXC.C.S.m.A.A.=.9.-.w.9.D J ",
"M %.m.1.n m *.b.B.%.G ~.mXJ.:X1XGXxXP.zXmXP _ Y.W.g.] o # @ 4 W ( p 4 > 3 > @ (  .8.u.U.9.D ~.~.M m.[.C.=.M.R.u.;.w n -.i.;.c u ",
"G A.-.G N.[.3.1.i.>.w.E.qX!.>XzXzXzXqXzXmX} 8.g.g.H L.Q @ 4 g V V Z | ! ! V > ) *X!.e.J.Y.} ~.|.A.A.A.E.fXVX~.7.w.G m %.i.w.u D ",
"U ;.I -.C.D.#.=.9.A.q.M.8XJ.>XdXqXJ.J.<XzXJ.y.J.] _ ;X( # V Z ' Q V ( ! Q Z C f.uX=X*Xy.8.} ~.9XS.D.0.M.sX8XM.7.m.[.G.1.&.1.9.$.",
"U U y G <.N.b q b ;.E.E.>X8.8XdX!.r r.K.>X>X} 8._ g.0X..i p A l Z g ) ) A B A H.,Xa qXy.!.8.U wX|.Y y 7.^.S.8.P [.{.Z.*.&.;.9.$.",
"6.D q U q.m b D 6.;.G G /.M.8XdX~.J.M.K.MXqX>Xy.J.qXqXJ.} H _ r.a # a B K e.y.*XxXH.) ,XGX!.0.~.R.~.} D 0.).y.t A.[.B.@.n =.9.F ",
"6.J D w.=.w ;.6.6.0.u.0.|.|./.fXwXM.U.>XzXGXxXmXU.M.R.R.Q.z.z.W.g. .y.Y.Y.Y.Y.~.uXH.*X,XbXqX).u.} M.!.J.I R.!.7.R.A.B.D.,.L L 8.",
"_ 4.G -.=.L $.L ;.6.u.R. XR.M.).).M.>X!.!.zXzXqXt u.E.R.Y.Y.Y.Y.Y.Y.Q.Y.p.A.u.~.NX .I.P.vXqX>XU.} y.0.M.y.J.S.q.Y.w.:.S.B.$.F J ",
"x J G -.L t L ;.6.K I 0.8XA.Y !.K./.>X!.!.xXqXdXy.y.Y.Y.Y.T.Y.Y.6.e.Y.p.A.Y.A.Y.mX!.*X<XxX!.:XU.} 0.m.m.I y.S.m.;.v b S.E.=.q D ",
"r P =.-.G G ;.=.6.} e.~.7X|.R.8X>X!.P.J.dXbXqXbXy.} g.Y.u.u.p.T.u.z.Y.p.Y.Y.Q.Y.7X!.1XL.<X1XP.>Xy.0.m.m.7.7.S.m.q.b M G N.,.q b ",
"D 8.L w.w.w.;.L 8.e.Y.~.).7XfXdX:Xf.{ J.qXqX!.vX) Z ) r.r.t.t.u.J.g.g.u.Y.Y.Q.y.} H.I.H.bX*XH.y.M.U.-.0.E.R.M.0.-.q.w.b G w.b b ",
"P 6.u P B.m.L u ;.7.U.!.qXJ.K.lX/.$ K.>X<X:XH.1XC p p l ^ ]  . .r.} } _ r.r.r.) B B ) qXKX{  .K.R.7.I M.(.fXe.I 7.=.9.G -.-.F P ",
"P P q u q.B.G y F 8.!.y.r.J.J.fXR.M.8.} !.qX<XH.5 f p , i p V Z Q A Z g Z Z ( A {  .H.,XGX*X..P.J.U r 8.8X7XD t 0.-.-.M G 9.6.D ",
"6.P q L 9.w.G n $.P g.*X*X<XP.qX).R.U I qX<X,X! 5 9 4 > > < = ; 1 d 8 3 d h E V C H.:X<XJXvX:X1XR.M.U U ~.>XJ.B 0.q.<.N G ;.$.D ",
"K P D 8.$.L =.G P 7.} *XKXbXP.:X_.).M.B J.I.I.C 5 5 C f 3 < * * 9 V h 9 9 E E V Q | { H.JXbXuX:Xu.0.0.u.u.xX>X7.M.,.,.b.q.-.$.6.",
"s H H P D y I U } } B a uXqX{ L.K.J.K S ..H.O.f C 3 ; < - * = - V 9 3 < < V V 4 ! ..| $XKXDXuX*XB } J.K B !.U.0.U b ,.B.A.U D P ",
"a s H K t D P 7.8.K B ) f...y.<X*XvX.. .H.f.| f f h 9 - = = - ; V V E ! Q ' Q C ! O.| 4XKXbX,X1X) } r._ ) K } 7.v w G A.7Xe.e K ",
"# ] H H P _ 8.U P K  . ...L.I.,X,XKX*Xf.{ ( Z > 3 h E 7 ; = ; = h 9 h C f f 4 5 E | | ,XGX,XH. ._ r.] y.y.f.} } 0.U G w.).J.e s ",
"^ ] s H y.H H e r } r.I.| f.) FX*XA  .I.] ! f 4 8 9 9 9 0 * X = + ; 9 V V V V V E E | $XDX . . .A l , ) K !.) H 7.U 0.6.P P H a ",
"Q ( e a _ B e $ a K f.,X] f.] j.O.^ #X .j.,XQ ; 9 7 7 9 0 * X + + + ; < 3 3 3 8 E f C #XDXO. .' a i # a K f.a B U 7.D r B H H A ",
"i ( O s _ B a ) { Z ..vX] L. . .' ] `  .DX#Xh = 7 7 7 9 7 - X X     ; < C h 8 3 9 C ! $XDXj.o.( A  .( g A ..A # H _ K H s H A a ",
"j Z @  .) e s ) a # a o.O.j.g o.` z j.%X3XO.d < - 7 7 7 7 < = X = + * + 7 8 8 9 7 = 8 j.pX! ( Q p Q Q Z p j.L.K ) _ _ J H ^ A ` ",
"p g 1 Z a i # # , # o Q Q ' l ' ` T o.#X( o.V = - - - ; * + = ; * - 7 3 9 7 < 7 < h ! j.;Xd j k o , , , 4 W ( K A e A H ] ^ l ' ",
": 1 o : p i g p , : > W W ( W o.' z ' o.' Q E + - - - * ; +   9 3   - - 7 9 7 0 0 ; ~ j.@X1 W ` 1 2 Z g 1 Z i # i O e i ^ z i Q ",
"o d : , Z Q Q , : 1 d ! W ! g ' l l Q o.: 1 8 = * - 0 * * + + f 8 + * - 7 7 - - ; = 8 6 ` j j W T d , ( W W # Z ( l i i ^ k o l ",
"X ' d , Z p > o o : < d d W p l l i W o.1 d h X + * - = * + + f h - + 3 7 - - - ; % Q ' j.k T j.1 Q W ' O.O.W j. .Q ^ l o.j.p k ",
"1 W o : 4 @ @   = 1 8 d 3 j f Q p k o.' j W h X * + ; - =   X f 3 <   ; - ; ; ; = X d pXSX2XpX2XT o.' ;X3X3XE 2X( j.3X;X,XpX#X1 ",
"> f . > g @ @ d h 8 ; 8 h W d f j j l 1 g W : o X X * = *   o d = 1 X * * * ; * % X k #X2X3Xj.o.! o.' o.#X$XE ' Z O.2X;Xj.f.o.@ ",
"4 d > V p @ > 4 > < < 3 < : > g j : o o , k Q < . % * % X   X h X d ; * ; ; - * X % & ` #Xk z 1 o : 1 X f 3XW . 1 : ` ` p : . g ",
"4 f @ 4 g p @ > > < ; < 1 > , Z d j ' W : d @X' . % % % %   ; W o 6 ; X * * * % % 2 ` X.o.2 k p : < : > f W j @ o 2 i d j i 1 Q ",
"@ , o @ , 4 @ < > < ; 3 8 > , f j d j d o o W d . % % % % . = ~ . 1 :   * * * X X 2 o.k ' & 1 i o % + o 8 8 o @ o o o o d o # g "
};
