/* XPM */
static char *ec04eb021c1d49b8ab07dc5b7c92f723MqY4SBLTOaXzO6h3[] = {
/* columns rows colors chars-per-pixel */
"64 64 140 2 ",
"   c None",
".  c #000000",
"X  c #090707",
"o  c #060808",
"O  c #0C0A0A",
"+  c #130E0E",
"@  c #151313",
"#  c #1B1414",
"$  c #141B1C",
"%  c #1A1A1A",
"&  c #241B1B",
"*  c #281E1E",
"=  c #182121",
"-  c #1E2728",
";  c #232323",
":  c #2D2222",
">  c #262E2E",
",  c #282828",
"<  c #322525",
"1  c #372929",
"2  c #3C2D2D",
"3  c #273233",
"4  c #353535",
"5  c #3C3C3C",
"6  c #453434",
"7  c #493737",
"8  c #4D3A3A",
"9  c #523E3E",
"0  c #344244",
"q  c #37494A",
"w  c #434343",
"e  c #4B4B4B",
"r  c #564141",
"t  c #5D4646",
"y  c #5F4848",
"u  c #475C5E",
"i  c #525252",
"p  c #5C5C5C",
"a  c #634A4A",
"s  c #694F4F",
"d  c #6C5151",
"f  c #725555",
"g  c #765959",
"h  c #7B5C5C",
"j  c #4D6365",
"k  c #526A6C",
"l  c #5B7577",
"z  c #5E797C",
"x  c gray43",
"c  c #607C7E",
"v  c #767676",
"b  c #7E7374",
"n  c gray48",
"m  c #856464",
"M  c #896767",
"N  c #866A6B",
"B  c #8D6A6A",
"V  c #936E6E",
"C  c #957171",
"Z  c #9C7575",
"A  c #927C7D",
"S  c #A47B7B",
"D  c #A97F7F",
"F  c #658285",
"G  c #758284",
"H  c #789B9E",
"J  c #7BA1A4",
"K  c #7FA5A8",
"L  c #838383",
"P  c #888888",
"I  c #899092",
"U  c #AE8282",
"Y  c #B28686",
"T  c #B6898A",
"R  c #BC8D8D",
"E  c #A19192",
"W  c #83A6AA",
"Q  c #87A8AB",
"!  c #87AFB2",
"~  c #89B1B5",
"^  c #90B3B6",
"/  c #BEA6A7",
"(  c #BCA7A9",
")  c #B4ACAE",
"_  c #BAAAAB",
"`  c #B5AEB0",
"'  c #BBAEB0",
"]  c #AFB4B6",
"[  c #ADB6B8",
"{  c #A7BCBF",
"}  c #AAB9BC",
"|  c #B1B2B3",
" . c gray73",
".. c #C49393",
"X. c #CA9797",
"o. c #C89696",
"O. c #C99797",
"+. c #C79D9E",
"@. c #CA9898",
"#. c #CB9898",
"$. c #CD9898",
"%. c #CC9999",
"&. c #CD9999",
"*. c #CD9A9A",
"=. c #CE9A9A",
"-. c #CE9B9B",
";. c #CF9B9B",
":. c #CA9D9D",
">. c #CF9C9C",
",. c #CC9999",
"<. c #D09A9A",
"1. c #D19C9C",
"2. c #D09C9C",
"3. c #C69FA0",
"4. c #C2A4A5",
"5. c #C2A3A4",
"6. c #C8A0A0",
"7. c #93BEC2",
"8. c #A4BEC1",
"9. c #95C1C5",
"0. c #9AC3C7",
"q. c #9FC3C7",
"w. c #9AC7CB",
"e. c #9AC8CD",
"r. c #9BC9CD",
"t. c #A1C1C4",
"y. c #A1C5C9",
"u. c #C0C0C0",
"i. c #C6C6C6",
"p. c gray85",
"a. c #E1E1E1",
"s. c #E9E9E9",
"d. c gray92",
"f. c gray93",
"g. c #EEEEEE",
"h. c #F1F1F1",
"j. c gray96",
"k. c #FBFBFB",
"l. c #FDFDFD",
"z. c white",
/* pixels */
"                                                                                                                                ",
"                                                                                                                                ",
"                                                                                                                                ",
"                                                                                                                                ",
"                                                    . . . . . . . . . . .                                                       ",
"                                              . . . . . . . . . . . . . . . . . .                                               ",
"                                        . . . . . . . . . . . . . . . . . . . . . . . .                                         ",
"                                    . . . . . . . . . . . X X X X X . . . . . . . . . . . .                                     ",
"                                . . . . . . . . . . @ 2 d V Z Z Z Z B a 1 + . . . . . . . . . .                                 ",
"                            . . . . . . . . . + 6 m U o.%.%.%.%.%.%.>.%.o.D g 1 O . . . . . . . . .                             ",
"                          . . . . . . . . # a S o.%.%.%.%.%.%.%.%.%.%.%.%.%.<...Z 9 + . . . . . . . .                           ",
"                        . . . . . . . @ a Y %.%.%.%.%.%.%.%.%.%.%.%.%.%.%.%.%.%.%.@.S 9 O . . . . . . .                         ",
"                    . . . . . . . X 7 S %.%.%.%.%.%.%.%.%.%.%.%.%.%.%.%.%.%.%.%.%.%.%.o.C < . . . . . . .                       ",
"                  . . . . . . . @ h o.%.%.%.%.%.%.%.%.%.%.%.%.%.%.%.%.%.%.%.%.%.%.%.%.%.%.R a O . . . . . .                     ",
"                . . . . . . . : S %.%.%.%.%.%.%.%.%.%.%.%.%.%.%.%.%.%.%.%.%.%.%.%.%.%.%.%.%.@.m @ . . . . . .                   ",
"                . . . . . . 2 Y %.%.%.%.%.%.%.%.%.%.%.%.%.%.%.%.%.%.%.%.%.%.%.%.%.%.%.%.%.%.%.%.Z & . . . . . .                 ",
"              . . . . . . 2 T %.%.%.%.%.%.%.%.%.%.%.%.%.%.%.%.%.%.%.%.%.%.%.%.%.%.%.%.%.%.%.%.%.%.S & . . . . . .               ",
"            . . . . . . < Y %.%.%.%.%.%.%.%.%.%.%.%.%.%.%.%.%.%.%.%.%.%.%.%.%.%.%.%.%.%.%.%.%.%.%.%.Z @ . . . . . .             ",
"          . . . . . . # S %.%.%.%.%.%.%.%.%.%.%.%.%.%.%.%.%.%.%.%.%.%.%.%.%.%.%.%.%.%.%.%.%.%.%.%.%.%.m O . . . . .             ",
"          . . . . . X m %.%.%.%.%.%.%.%.%.%.%.%.%.%.%.%.%.%.%.%.%.%.%.%.%.%.%.%.%.%.%.%.%.%.%.%.%.%.%.@.y . . . . . .           ",
"        . . . . . . 9 o.%.%.%.%.%.%.%.%.%.%.%.%.%.%.%.%.%.%.%.%.%.%.%.%.%.%.%.%.%.%.%.%.%.%.%.%.%.%.%.%.R < . . . . .           ",
"        . . . . . # U %.%.%.%.%.%.%.%.%.%.%.%.%.%.%.%.%.%.%.%.%.%.%.%.%.%.%.%.%.%.%.%.%.%.%.%.%.%.%.%.%.%.V X . . . . .         ",
"      . . . . . . f %.%.%.%.%.%.%.%.%.%.%.%.%.%.%.%.%.%.%.%.%.%.%.%.%.%.%.%.%.%.%.%.%.%.%.%.%.%.%.%.%.%.%.o.7 . . . . .         ",
"      . . . . . & R %.%.%.%.%.%.%.%.%.%.%.%.%.%.%.%.%.%.%.%.%.%.%.%.%.%.%.%.%.%.%.%.%.%.%.%.%.%.%.%.%.%.%.%.Z O . . . . .       ",
"      . . . . . f %.%.%.%.%.%.%.%.%.%.%.%.%.%.%.%.%.%.%.%.%.%.%.%.%.%.%.%.%.%.%.%.%.%.%.%.%.%.%.%.%.%.%.%.%.o.6 . . . . .       ",
"    . . . . . @ U %.%.%.%.%.%.%.%.%.%.%.%.%.%.%.%.%.%.%.%.%.%.%.%.%.%.%.%.%.%.%.%.%.%.%.%.%.%.%.%.%.%.%.%.%.%.B X . . . .       ",
"    . . . . . 8 @.%.%.%.%.%.%...T Y R %.%.%.%.%.%.%.%.%.%.%.%.%.%.%.%.%.%.%.%.%.%.%.%.%.%.%.%.%.%.%.%.%.%.%.%.R * . . . . .     ",
"    . . . . . m %.%.%.%.o.Z r : # @ & r U %.%.%.%.%.%.%.%.%.%.%.%.%.%.%.%.%.%.%.%.%.%.%.%.R R R ..o.%.%.%.%.%.%.t . . . . .     ",
"    . . . . + U %.%.%...a X . . . . . . : Y %.%.%.%.%.%.%.%.%.%.%.%.%.%.%.%.%.%.%.%.%.o.h & & & : 6 h T %.%.%.<.B . . . . .     ",
"  . . . . . : ..%.%.o.t . % p L x @ . . . 8 ..%.%.%.%.%.%.%.%.%.%.%.%.%.%.%.%.%.%.%.@.f X . . . . . . & m @.%.%.U @ . . . .     ",
"  . . . . . 7 @.%.%.B X ; u.z.z.z.p . . . . h %.%.%.%.%.%.%.%.@.%.%.%.%.%.%.%.%.%.%.m O . % 4 % . . . . O m %.%...< . . . . .   ",
"  . . . . . d %.%.@.7 . v z.z.z.h.w . . . . 2 o.%.%.%.%.D f 8 6 8 s Z o.%.%.%.%.%.Y & . O | j.i.; . . . . & R %.@.6 . . . . .   ",
"  . . . . . m >.%.R * . n z.z.z.P X . . . . & R %.%...a + . . . . . O 9 T %.%.%.%.S O . , d.z.k.w . . . . . B %.%.r . . . . .   ",
"  . . . . X Z %.%.R # . % L | L O . . . . . : ..%...8 . . . . . . . . . 1 Y %.%.%.U + . %  .d.| % . . . . . d %.%.a . . . . .   ",
"  . . . . O S %.%...< . . . X . . . . . . . 8 @.%.s . . . . . . . . . . . 7 ..%.%.U + . . % , O . . . . . . g %.>.f . . . . .   ",
"  . . . . + U %.%.%.g . . . . . . . . . . O C 1.D @ . . . . . . . . . . . X m %.%...2 . . . . . . . . . . O S %.1.m . . . . .   ",
"  . . . . + U %.%.%.D @ . . . . . . . . o k ( <.d . . . . . . . . . . . . . 2 o.%.%.h . . . . . . . . . . # T %.>.B . . . . .   ",
"  . . . . X Z %.%.%.3.G = . . . . . . @ z 0.( o.2 . O 5 e e e e i i i i 4 X + U %.%.T > . . . . . . . . . < ..%.>.h . . . . .   ",
"  . . . . . g %.%.%.) e.! F j u j k l K e.{ :.R & . 5 a.g.g.g.g.g.g.g.g.p.i . V %.%.4.Q 0 . . . . . . . $ b %.%.%.9 . . . . .   ",
"  . . . . . 6 o.%.%._ w.e.r.r.r.r.r.r.e.w.( %.R # . % 5 5 5 5 5 4 4 4 4 4 % . m 1.%.@.} 7.c 0 3 3 3 0 j J 8.:.%.R & . . . . .   ",
"  . . . . . @ Y %.%.:.} w.w.w.w.w.w.w.w.] @.%.o.8 . . . . . . . . . . . . . O V %.%.%.` e.r.w.9.7.9.w.r.e.t.+.%.V X . . . .     ",
"    . . . . . h %.%.%._ w.w.w.w.w.w.e.{ +.%.%.%.T h h h h h h h h h h h h h C o.%.%.%./ w.w.w.w.w.w.w.w.e.{ @.@.9 . . . . .     ",
"    . . . . . < ..%.+.8.w.w.w.w.w.w.q.4.%.%.%.%.%.>.1.1.1.1.1.1.1.1.1.1.1.1.%.%.%.%.%.6.q.w.w.w.w.w.w.w.q.4.%.U @ . . . . .     ",
"    . . . . . X m <./ w.w.w.w.w.w.e.| %.%.%.%.%.%.%.%.%.%.%.%.%.%.%.%.%.%.%.%.%.%.%.%.:.{ 8.w.w.w.w.w.e.} @.%.a . . . . .       ",
"      . . . . . : R :.{ w.w.w.w.w.q.5.%.%.%.%.%.%.%.%.%.%.%.%.%.%.%.%.%.%.%.%.%.%.%.%.@.} ] t.w.w.w.w.w._ %.S @ . . . . .       ",
"      . . . . . . a %.5.q.w.w.w.e.{ @.%.%.%.%.%.%.%.%.%.%.%.%.%.%.%.%.%.%.%.%.%.%.%.%.%.] | [ e.w.w.e.8.:.o.7 . . . . . .       ",
"        . . . . . O V 6.q.w.w.w.e.| %.%.%.%.%.%.%.%.%.%.%.%.%.%.%.%.%.%.%.%.%.%.%.%.%.%.` [ _ w.w.w.w.t.6.h X . . . . .         ",
"        . . . . . . * E r.w.w.w.w._ %.%.%.%.%.%.%.%.%.%.%.%.%.%.%.%.%.%.%.%.%.%.%.%.%.%._ } / w.w.w.w.y.A + . . . . . .         ",
"          . . . . . . 4 ^ r.w.w.w.( %.%.%.%.%.%.%.%.%.%.%.%.%.%.%.%.%.%.%.%.%.%.%.%.%.%.4.[ 5.w.w.w.r.Q ; . . . . . .           ",
"            . . . . . . 0 ~ r.w.w./ %.%.%.%.%.%.%.%.%.%.%.%.%.%.%.%.%.%.%.%.%.%.%.%.%.%.5.| 4.w.w.r.W > . . . . . .             ",
"              . . . . . . 3 K r.w._ %.%.%.%.%.%.%.%.%.%.%.%.%.%.%.%.%.%.%.%.%.%.%.%.%.%.5.| ( w.e.H - . . . . . .               ",
"                . . . . . . $ F 9.} %.%.%.%.%.%.%.%.%.%.%.%.%.%.%.%.%.%.%.%.%.%.%.%.%.%.5.| ' 9.z @ . . . . . .                 ",
"                  . . . . . . o q I @.<.%.%.%.%.%.%.%.%.%.%.%.%.%.%.%.%.%.%.%.%.%.%.%.%.4.) A 0 X . . . . . .                   ",
"                    . . . . . . . + 8 B Y o.%.%.1.>.%.%.%.%.%.%.%.%.%.%.%.%.>.1.%.%.o.Y N w O . . . . . . .                     ",
"                      . . . . . . . . . # 6 a f h B Z S U R R ....R T U S C M h d t 2 @ . . . . . . . . .                       ",
"                          . . . . . . . . . . . . . X O @ # * < < & # + O X . . . . . . . . . . . . .                           ",
"                              . . . . . . . . . . . . . . . . . . . . . . . . . . . . . . . . . .                               ",
"                                  . . . . . . . . . . . . . . . . . . . . . . . . . . . . . .                                   ",
"                                        . . . . . . . . . . . . . . . . . . . . . . . .                                         ",
"                                                  . . . . . . . . . . . . .                                                     ",
"                                                                                                                                ",
"                                                                                                                                ",
"                                                                                                                                ",
"                                                                                                                                "
};
