/* XPM */
static char *_590e853537c4db88536f821840474107bU1mqPRgNJyRHmA[] = {
/* columns rows colors chars-per-pixel */
"64 64 247 2 ",
"   c #010303",
".  c #0A0404",
"X  c #020906",
"o  c #0A0A05",
"O  c #01060A",
"+  c #050C0C",
"@  c #090C0D",
"#  c #0B040A",
"$  c #150A0B",
"%  c #06100E",
"&  c #0A110B",
"*  c #13120E",
"=  c #030D13",
"-  c #0A0D11",
";  c #010C1B",
":  c #050414",
">  c #180B19",
",  c #051115",
"<  c #0C1213",
"1  c #03121A",
"2  c #0D151A",
"3  c #0E1917",
"4  c #121414",
"5  c #111719",
"6  c #141B1B",
"7  c #18191A",
"8  c #211919",
"9  c #240C10",
"0  c #17201E",
"q  c #0E211D",
"w  c #22211E",
"e  c #041A25",
"r  c #051827",
"t  c #161C24",
"y  c #021D33",
"u  c #020F21",
"i  c #251826",
"p  c #3B1C24",
"a  c #0C212B",
"s  c #1B2324",
"d  c #1A2628",
"f  c #072738",
"g  c #182637",
"h  c #10313F",
"j  c #232B2C",
"k  c #292929",
"l  c #272D35",
"z  c #2B3334",
"x  c #29313C",
"c  c #373839",
"v  c #342E30",
"b  c #463534",
"n  c #082A43",
"m  c #163649",
"M  c #193C54",
"N  c #133247",
"B  c #263948",
"V  c #313C4A",
"C  c #493C47",
"Z  c #194159",
"A  c #3B4345",
"S  c #284757",
"D  c #364858",
"F  c #25424E",
"G  c #2A4B63",
"H  c #2B5367",
"J  c #37586A",
"K  c #375B75",
"L  c #364F63",
"P  c #3B6374",
"I  c #3F606D",
"U  c #46484A",
"Y  c #474953",
"T  c #4C5656",
"R  c #555959",
"E  c #514F4C",
"W  c #645858",
"Q  c #6A4D55",
"!  c #57645D",
"~  c #69635A",
"^  c #475967",
"/  c #4F5C69",
"(  c #6B5D64",
")  c #7C5D64",
"_  c #5B6363",
"`  c #5B6868",
"'  c #466679",
"]  c #576774",
"[  c #4C6973",
"{  c #646A6B",
"}  c #766669",
"|  c #676B74",
" . c #6B7373",
".. c #657578",
"X. c #777778",
"o. c #756B70",
"O. c #876B75",
"+. c #867778",
"@. c #967578",
"#. c #8E696C",
"$. c #98847F",
"%. c #3E6C83",
"&. c #4B6D83",
"*. c #4D7384",
"=. c #567989",
"-. c #567B93",
";. c #536985",
":. c #667B86",
">. c #777D85",
",. c #9A7C82",
"<. c #A87B85",
"1. c #7A8486",
"2. c #688898",
"3. c #768A94",
"4. c #698995",
"5. c #688EA3",
"6. c #7698A9",
"7. c #7197AA",
"8. c #7BA3B4",
"9. c #7EA0AC",
"0. c #5E8090",
"q. c #838B8C",
"w. c #898885",
"e. c #9A8A89",
"r. c #868B93",
"t. c #8B9597",
"y. c #989194",
"u. c #A68687",
"i. c #AF8892",
"p. c #B78A95",
"a. c #A79996",
"s. c #B79999",
"d. c #B18C8A",
"f. c #B5A49E",
"g. c #859CA8",
"h. c #959DA6",
"j. c #859DB5",
"k. c #B29BA5",
"l. c #88A3AC",
"z. c #98A3A9",
"x. c #8AADBC",
"c. c #86A7B8",
"v. c #95ABB3",
"b. c #97B3BC",
"n. c #8EB0BE",
"m. c #BDA8A7",
"M. c #AAB2BA",
"N. c #B6B9B8",
"B. c #ABADAC",
"V. c #C59699",
"C. c #C18A98",
"Z. c #C69BA7",
"A. c #C8AAA9",
"S. c #D3AEAA",
"D. c #CAB5AD",
"F. c #D4B4AC",
"G. c #CAACB4",
"H. c #CAB6B5",
"J. c #DCBBB4",
"K. c #D8B8B6",
"L. c #D7A9B5",
"P. c #E4BBB5",
"I. c #E5B7BA",
"U. c #E5AAB7",
"Y. c #C8C3BB",
"T. c #D8C2BC",
"R. c #E4C2BB",
"E. c #EBC3BE",
"W. c #E8C8BC",
"Q. c #89ACC3",
"!. c #8DB2C7",
"~. c #97B8C9",
"^. c #95B9D0",
"/. c #B6BCC4",
"(. c #ABB9C3",
"). c #D0B9C3",
"_. c #F4BECA",
"`. c #E5BCC4",
"'. c #9DC2D4",
"]. c #AAC3CD",
"[. c #A8CAD9",
"{. c #B5CAD5",
"}. c #B5CAD2",
"|. c #B8D8E7",
" X c #B0D4E9",
".X c #BDE2F4",
"XX c #C9C7C6",
"oX c #DCC2C2",
"OX c #D3CBC4",
"+X c #DBCCC6",
"@X c #D9C9C9",
"#X c #DBD3CC",
"$X c #D9D5CB",
"%X c #D2CED3",
"&X c #D7D8D6",
"*X c #C9CFD5",
"=X c #E4C5C2",
"-X c #ECCBC4",
";X c #E6CAC9",
":X c #F2CBC5",
">X c #F3CBC8",
",X c #EAD3C9",
"<X c #F3D5CD",
"1X c #F8D8CC",
"2X c #E3DCD3",
"3X c #EADBD5",
"4X c #E8D8D5",
"5X c #F3D4D4",
"6X c #FCDBD4",
"7X c #FDDDDB",
"8X c #F7D8D5",
"9X c #F1CAD3",
"0X c #ECE4DB",
"qX c #EEE8DF",
"wX c #E3E2D8",
"eX c #FEE2D6",
"rX c #F1E5DD",
"tX c #FEE4DB",
"yX c #FBE6DC",
"uX c #C8D9E3",
"iX c #D7DCE6",
"pX c #EFDEE4",
"aX c #DAE4E9",
"sX c #C6E7F7",
"dX c #D6ECF9",
"fX c #D8F6FF",
"gX c #CBE8F3",
"hX c #E9E9E7",
"jX c #FEE3E2",
"kX c #F3EBE3",
"lX c #FCECE3",
"zX c #F7ECE8",
"xX c #F6F1E5",
"cX c #F5F2EB",
"vX c #FBF3EB",
"bX c #FEF8EF",
"nX c #FBF5E5",
"mX c #E9EDF1",
"MX c #EEF1F3",
"NX c #E6F9FC",
"BX c #F2F5F4",
"VX c #FDF5F1",
"CX c #FDFBF4",
"ZX c #F5FCFD",
"AX c #FEFEFE",
"SX c #FDFEFE",
"DX c #F3F8F8",
/* pixels */
"v./.hXkXkX0XwX&X2XOX#XOXOX#XOXY.2X2XY.#X2X0X0XkXkX0X2X+X#XkXbXbXbXqXwXqXcXbXcXxXwXkXvXkX0XqX0XqX0XbXVXCXCXZXZXZXX.+ @ X + 2 e a ",
"g.}.MXxXkXkXhXhX0X#X#XOXOXOXOXY.0X2XY.2X0XkXzXxXzX0X2X+X#XrXvXxXbXqX2X2X0XvXbXkXkXbXCXbXvXvXvXvXrXCXVXCXSXAXZXZXq.O < O + , e a ",
"t.uXZXcXzXxXcXBXkX0X+XOX#XOXOXOXzX#XY.0XzXvXvXvXzX0X2X+XOX3XkXkXvXkX4X+X,XvXCXkXzXCXAXCXbXbXbXbXkXCXCXAXAXAXAXZX1.  & + O , e a ",
"3.aXAXvXxXvXCXAXcXzXOXOX#XOXY.OXbX#XY.kXvXvXvXvXzX0X2X+XT.4XkXrXvXlX3XT.oXvXAXkX0XbXCXvXvXvXvXvX0XVXVXCXSXSXZXZX`   O @ X = e r ",
"h.ZXZXAXkXcXCXAXVXzX2XOX2X#X#X2XbXOX2XxXbXAXvXCXkXrXrX4XH.4XvXvXbXrXrX+XH.3XvXzX#XzXzXbXkXzXvXvX0XVXAXCXAXZXAXAX_ X 4 + - = a f ",
"].ZXZXAXkXzXVXAXCXvX0X#XzX#X#XzXvX2XkXkXwXvXxXCXzXkXrX4XT.#X0XzXvXrXrX4X2X0X4XrXkXkXbX3XzXkXkXkX2XvXAXCXAXSXAXZXT O < + - = a m ",
"dXZXDXCX0XkXcXCXAXVXzX2XkX$X$XkX0X0XvX2X0XbXvXCX0XzXzXrX0X#X3XCXbXxX2X#X$XY.OXY.0XwX0XOXzXzXcXvX2XvXAXCXAXAXAXmXV   @ O @ + e D ",
"NXZXCXCX0XqXcXBXAXAXcXhX&X%X%X&XXX&XhXXX&X&XXXY.N.%X%XN.X.N.N.w.XX}.t.q.z.N.! E w.y.w.w.+.w.a.B.N.2XVXAXSXAXAXhXl O O O @ O e ^ ",
"DXAXAXCX3X2XvXBXDXZXZXZXmXNXaXuXt.(.uX{.{.b./ a x b.}.^ D ..x / ].}.v.l.v.gXt.^ 3.:.d j X o & * w k c U { r.XXN.- @ + + + = 1 D ",
"CXAXCXVX4XXXhXhXZXNXuX].l.{.3.=.c.b.|.{.[.[ 4.x.~.~.6.S S |.].4.6.fX~.c.2.[.fX6.=.3.; a X + & 4 7 < X X X   j  .- @ @ + + = ; B ",
"CXAXVXkX@XXXAXNX{.x.=.P 2.7.*.0.6.x.|. XS N [.NXfXsXsX' H [.sX5.F n.sX|.6.6.sX4.e J e = X + & 4 5 < X + 4 4 < j - @ @ + + < ; g ",
"CXCXcXhXXX%XAX}.I 5.8.7.-.P *.P 2.9. XsX4.7.2.n.x.!.|.=.[ 4.c.dX[ 4.[.fX[.|.|.4.m 1 e , X + @ 4 3 @ O @ 3 < @ < @ @ @ + + , ; g ",
"AXAXcX%X).iXuX4.6.!.Q.&.G ' *.5.[.x.'.NXfX|.].H 0. X[.S =.'.~.7.!.2.J [ [.[.n.3.L e e , + + @ o < + O @ < < + - @ @ @ + X = ; g ",
"AXCXwXXX/.iX|.^.'.2.-.Z y *.-.7.7.6.^.=.9.[.9.S ~.NXsX6.5.6.9.2.S J ; e *.5.x.g.F ; 1 = + + @ @ < + O @ < < @ < @ @ @ + X = ; g ",
"AXBX%XXXuXdXdX[.^.'.7.0.5..X'.=.&.Z K *.5.x.=.J ~.!.6.c.6.l.b.|.6.J I h h f L g.B ; 1 , + + @ @ 3 + O @ < < @ < @ @ @ + X = ; g ",
"SXhXXX*X(.|.fX^.*..X.X!.!.'..X X6.f K -.m 7.'.!.J f N S g.].l.uXx.y 0.' u r S D a = = 2 + + @ @ 3 + + + < 3 + < @ @ @ + X = ; g ",
"mXiXz.}.M.{.[. X-.|.sX~.-.K 7.8.H N 7.x.-.~.Q. X=.&.S [ :.t | >.F h F B r u r u - = = , + + @ @ < = + = 6 < - - @ @ @ + + = ; B ",
"XXiXh./.uX{.dXfXNX|.c.sX6.&.*.m f *.[.6.&.&.^.^.^.!.2.~./ Y %XhX3.= e F g g g : - - = + + + + + < = + = 6 3 - - @ @ @ + + = ; B ",
"h.(.z.z.}.].].NXZXgXfX~.x.7.P ' 6.5.' M &.K K n m M L / x N.4X3XOXk   x g V ;.g < @ + + + + + + < @ + = 6 3 - - @ @ @ + + = ; B ",
"Y Y | M.l.:.g.gX{.fX6.6.|.G G Q.5.K y S ^.c.r M n g / : R XX;X,X3Xo.$ 6 g ^ j.L = @ + + + + + + < @ + = 6 2 - - @ @ @ + + = ; B ",
" .| r.h.3.] ].v.^ {.[ 6. X=.N -.^. XH 6.NXNX7.&.G 4.] = o.;X<X-XeXD.$ $ O ^ ~.:.= + + + 5 <   @ 4 + 3 X 6 t 6 + @ @ @ + + , = g ",
"SXZXM.] >.] g.l.B S 4.~.sX8.H f !.!.S K c.8.Q.m y m : @ e.+X:X-X,X,Xb $ - t / 3.+ @ + + O O - O O O O 6 q.z < - @ @ @ + % = ; x ",
"MXZX}.h./.| 3.v.h r ' ~.c.!.K &.^.G r &.&.5.S r ] 3.t 8 D.J.W.W.=XjX+.. 7 < < < + + + + < - O < Y d l X.t._ 6 O @ @ @ + % = ; g ",
"AXAXAXZXaXv.NXdXg.S M J J Z n P J G J L -.J N f g.M.k C ;XK.W.-XoX;Xm.8   @ X X + + + +   <   R Y ` | { R { 4 @ @ @ @ @ X < = ; ",
"AXMXmXmXZXZXZXZXuX~.n G Z M H Z m H f ; n G y ; D r.i ( K.F.K.-X;X`.@Xb * X X X X . @ 6 s 3 s T Y / >.t - 7 @ O @ @ @ o + + + + ",
"ZXAXAXMXZXZXZXZXZXdXm K -.K %.8.M f ; e f m ; ; t Y i +.oXK.=X<X>X9X@XW   & X % X o k R ` _ ..+ l V l O - 4 @ o @ @ @ @ @ @ @ @ ",
"%XhXAXAXZXZXZXZXaX3.[ ;.-.K -.' f m e ; N N ; x V # > a.@X5X8X8X7X7X;Xa.$ X % & & 7 0 X ! ..` q = j < - 5 + % + + @ @ @ @ @ @ @ ",
"AXBXDXAXAXZXZXZXZX1.g ' G G J P f B d a h y O x l # R @X4XjXjX7XVXjX4X@XW . w *   X o   4 @ X X 7 . @ 7 7 O @ + + @ @ @ @ @ @ @ ",
"ZXZXAXAXAXAXAXAXZXM.r D ' G 0.I a t 6 t B r O 2 : > y.).;X5XjXjX5X=XK.4Xs.b a.H.H.m.a.u.@.@.@.,.+.} } } # . @ @ @ @ @ @ @ @ @ @ ",
"ZXAXAXAXAXAXAXAXCX&Xl ; N m F 1 ; = @ @ g 1 O -   v y.k.a.H.oXK.K.u.E m.;Xm.3XvXAXbXjX8X7X6X<X6XJ.m.s.+.. # @ @ @ + @ @ @ @ @ @ ",
"AXAXAXAXAXAXAXAXAXDX| ; ; : ; O O O . o 1 ; O @ # > o.E 9 u.K.d.F.#.$ O.=X8XjXlXlXlXeX5X<XE.P.P.F.m.A.+.. @ + + @ + @ @ @ @ @ @ ",
"AXAXAXAXAXAXAXAXAXCXAXaXh.d , , = @ o o O = @ # - - # > } `.P.s.K.7XA.S.;X8XjXeXlXyXyXeX6X:XP.P.F.A.D.} . X + + + + @ @ @ @ @ @ ",
"AXAXAXAXAXAXAXAXAXZXDXZXZXT = , - @ @ @ - - @ @ @ $ $ p @.=X-X-XeXeX1XW.6X6X6XeXnXlXyXeX6X>XE.P.F.F.T.E . O + + + O + 3 - @ @ @ ",
"AXAXAXAXAXAXAXAXZXAXMXDX&X5 O < @ @ @ @ O @ - @ # 8 b } a.5X6X6XeXyXeX<X1X6XeXeXyXlXeX7X6X>XE.P.F.T.H.c X + @ @ @ O + 3 @ - @ @ ",
"AXAXAXAXAXAXAXAXZXZXDXAXR   5 < @ @ @ @ 4 k z k v U W e.G.7XtX7XeXeXeX6X1X6X6XeXtXeXeX6X6X>XE.P.J.W.m.8 X + @ @ @ O + 3 - @ @ @ ",
"AXAXAXAXAXAXAXAXBXDXZXN.O @ O O @ @ @ @ 5 z U V c E ( e.H.5X7X<X<X6X6X<X8X6X6XeXeXeX6X1X6X>XE.P.W.W.a.* @ + @ @ @ O + 3 @ @ - - ",
"ZXZXAXAXAXAXZXhXaXhXMXz   @   O @ @ @ @ @ 7 k v v c o.k.oX5XK.K.K.=X8X<X>X6X6X8XtXtX<X-X:X:X:X:XW.,X+.. @ @ + @ @ O 5 < + + + + ",
"AXZXZXZXAXAXDX}.N.BXAXq.- @ O @ @ @ @ @ @ 4 4 - t C ( +.).).s.s.s.A.A.S.K.;X8X7XeX6X<X-X-X:X:XE.R.,XW   @ @ @ @ @ + 5 3 + + + + ",
"AXZXZXZXDXBX&XhX%XXXmXDXU   < @ @ @ @ @ @ - - - > i v Q O.@.@.i.u.d.@.u.i.A.`.5X1X<X-X-X-X-XE.E.R.T.b   @ @ @ @ @ + 5 3 + + + + ",
"AXZXZXZXAXhX&XDXBXaXDXM.5 O O + @ @ @ @ @ @ @ - - > i i ) ).G.G.`.A.) ) Q ) @.i.T.,X-XW.E.E.E.E.-Xm.8 . @ @ @ @ + + 5 < + + + + ",
"AXZXZXZXAXDXAXBXBXZXN.O O O O + @ @ @ @ @ < < @ : > > $ O.G.G.K.jX5X@.b p @.) ) K.=X-XR.E.E.E.=X+X+.. 4 @ - @ @ = < < + + + + + ",
"AXZXZXZXAXBXZXAXMXDXy.  O O O + @ @ @ @ @ < < @ : i o.e.k.p.<.,.A.L.Z.p.i.Z.Z.G.J.R.W.R.R.R.R.T.XXU . @ @ - - - + < < + + + + + ",
"AXAXZXZXhX%XMXN.XXN.z + + + + + @ @ @ @ @ < < @ > C O.Z.9X_._._._._.9X_.C.p.L._.-XR.J.P.J.J.J.T.a.4 O @ @ - - = + < < + + + + + ",
"AXAXZXZXBXDXt.  + O   @ + + + + @ @ @ @ @ < < @ v ( ) i.I.U.U.U._.I.U.V.V.Z.U.I.>XP.K.J.K.K.K.K.R . @ 4 @ - - - + < < + + + + + ",
"AXMXN.XXz.U   O @ @ @ @ @ @ @ @ @ @ @ @ @ O O 4 Y o.o.O.<.d.p.C.V.V.d.u.V.K.I.J.J.S.F.F.D.D.D.a.7 @ @ @ @ @ + + < 2 < - + = < < ",
"X.A   @ O O O < @ @ @ @ @ @ @ @ @ @ @ @ @ @ @ 7 U } O.@.#.#.@.@.@.u.p.V.S.F.K.S.F.S.A.A.f.a.a.v @ @ @ @ - @ + + 2 3 < - + = < < ",
"  O < @ O - < < @ @ @ @ + + + + @ @ @ @ @ @ < k U +.u.s.S.K.R.-XP.R.E.-XR.P.J.S.S.S.A.f.a.e.E o @ @ @ @ @ @ + + 2 < - - + = - < ",
"4 4 O @ - O O < @ @ @ @ + + + + @ @ @ @ @ @ 4 k W e.A.T.7X7XtXlXlXyXeX6X6X:XR.F.F.A.m.s.e.E o X @ @ @ @ @ @ + + 3 < - - + + - < ",
"< @ @ @ @ @ @ @ @ @ @ @ @ @ @ @ @ @ @ @ + + O k ~ e.D.,XyXlXlXlXnXnXnXnXeX<XP.A.H.m.a.+.v . . $ o @ @ @ + + O + < - @ + + @ @ - ",
"@ @ @ + @ @ @ @ @ @ @ @ @ @ @ @ @ + @ @ + + O k ~ u.D.<XeXtXtXlXxXxXxXnXeX-XP.J.D.a.W $ .   . $ @ @ @ @ + + + + < - @ + + @ @ @ ",
"@ @ + + @ @ @ @ @ @ @ @ @ @ @ @ @ @ @ @ O + O k W u.D.,X8XeXtXtXtXtXyXyX5X;XK.m.e.b . #   o @ @ @ @ @ @ @ + + + < - + + @ @ @ @ ",
"@ + + - @ @ @ @ @ @ @ @ @ @ @ @ + + + + + + O k W $.A.=X8X7X7X7X7XtXjXjX+X;XD.X.7 4 & @ @ o o @ @ @ @ @ @ + + + - @ + < @ @ @ @ ",
"O + + + + + + + @ @ @ @ @ @ + + + + + + + + + @ v o.a.H.;X9X5X5X5X7X5XoXH.f.~ o o @ @ @ @ @ @ @ @ @ @ @ O @ - < - @ @ @ @ @ @ @ ",
"+ + + O + + + + @ @ @ @ @ @ + + + + + + + + + @ @ k } a.m.G.G.G.K.K.G.m.o.c X @ @ @ & @ @ @ @ @ @ @ @ @ O @ - < @ @ @ @ @ @ @ @ ",
"+ + O O + + + + + + + + + + + + + + + + + + + + @ 4 @ v R W W W ( W U k 4 @ X & % % & & @ @ % % + + + + X + < < + + + + + + + + ",
"+ + O O + + + + + + + + + + + + + + + + + + + + O X @ @   . # # @ < @   O   X < % % % % @ @ % % + + + + X + < < + + + + + + + + ",
"@ % < z A < + X + < + 0 6 < O X 6 U s c t   2 < Y s X z s O @ O 3 O 6   6 z s j + < X % 6 6 + X + X s j s s 3 O O + s 6 3 + X + ",
"+ O O _  .  + @ O O O _ R   <   O r.j 6 X.s +    .{ O z < X % 3 3 X < s  .3 O U 6 + %   R T   6   j { X 6 R 3 < @    .A O + < < ",
"+ 3   R { X 3 + < + O T r.X = < X 1.d   _ X.O O s t.s d X + + 6 3 + X R {     6 < X < X R 1.+ 3    .Y   + 6 6 + X O  . .X % < < ",
"X X   T _ X X X % X 6 0 t.z O , X q.j + A q.  2   1._ O % < O 3 3 +   1.T O 6 O   % + 0 6 t.l     1.A   X X X < X s d h.< + X + ",
"X +   T {   + 6 <   j 3  ._ + < 2 q.d   ` | O < X T {   + + X 6 0 + + _ _   < _ z     z s 1.R X O  .T   6  .j O X j 3 q.A O < < ",
"X X   _  .X s Y O 6 c X z h.= + = t.j d  .2 O < + ! { O + + X 6 3 < X s { 3 + q.s + 3 c   A q.< X j  .< s q.<   0 z X T 1.  X + ",
"< X < j l 3 j s % 3 s % 6 z 6 = < z d j 2 = = = + j j X + + X 6 < % X   + z s 3 < < 6 j < 6 c < X < 0 j s % < + 0 s X 6 z 3 < + ",
"X + X + X   O O < + X % + + < < = O = O 2 + < = = < + < + + X 6 3 X + s <   + O X < < X 3 +   O % < O + X X + + +   % X X < + % "
};
